AC-Frankie.ufo
<glyph name="B" format="2">
  <advance width="475"/>
  <unicode hex="0042"/>
  <outline>
    <contour>
      <point x="37" y="0" type="line"/>
      <point x="196" y="0" type="line" smooth="yes"/>
      <point x="361.38554216867465" y="0"/>
      <point x="455.0" y="82.0"/>
      <point x="455" y="188" type="curve" smooth="yes"/>
      <point x="455.0" y="339.51190476190476"/>
      <point x="331" y="366.0"/>
      <point x="226" y="366" type="curve"/>
      <point x="226" y="340" type="line"/>
      <point x="270" y="340.0"/>
      <point x="419.0" y="379"/>
      <point x="419.0" y="506" type="curve"/>
      <point x="419.0" y="621.0"/>
      <point x="354" y="670.0"/>
      <point x="191" y="670" type="curve" smooth="yes"/>
      <point x="37" y="670" type="line"/>
      <point x="32" y="661" type="line"/>
      <point x="40" y="460"/>
      <point x="40" y="213"/>
      <point x="32" y="12" type="curve"/>
    </contour>
    <contour>
      <point x="107" y="96" type="curve"/>
      <point x="138" y="66" type="line"/>
      <point x="132" y="241"/>
      <point x="133" y="416"/>
      <point x="138" y="597" type="curve"/>
      <point x="107" y="571" type="line"/>
      <point x="239" y="575"/>
      <point x="319.0" y="558"/>
      <point x="319" y="489" type="curve" smooth="yes"/>
      <point x="319.0" y="402"/>
      <point x="218.0" y="381.0"/>
      <point x="125" y="381" type="curve"/>
      <point x="125" y="306" type="line"/>
      <point x="301.0" y="306.0"/>
      <point x="355.0" y="282.1276595744681"/>
      <point x="355" y="204" type="curve" smooth="yes"/>
      <point x="355.0" y="127.0"/>
      <point x="281.0550458715596" y="96.0"/>
    </contour>
  </outline>
</glyph>
<glyph name="C" format="2">
  <advance width="424"/>
  <unicode hex="0043"/>
  <outline>
    <contour>
      <point x="231" y="-10" type="curve"/>
      <point x="316.0" y="-10.0"/>
      <point x="357.76745681974216" y="1.1287636369725433"/>
      <point x="401" y="18" type="curve"/>
      <point x="404" y="23" type="line"/>
      <point x="382" y="108" type="line"/>
      <point x="378" y="110" type="line"/>
      <point x="330.5198991562341" y="97.05088158806385"/>
      <point x="290.135593220339" y="90.0"/>
      <point x="250" y="90" type="curve"/>
      <point x="175" y="90"/>
      <point x="142.0" y="170.0"/>
      <point x="142" y="346" type="curve" smooth="yes"/>
      <point x="142" y="518"/>
      <point x="178" y="579"/>
      <point x="242" y="579" type="curve" smooth="yes"/>
      <point x="296.2372881355932" y="579.0"/>
      <point x="329.1511709914434" y="572.0495685820998"/>
      <point x="370" y="557" type="curve"/>
      <point x="374" y="559" type="line"/>
      <point x="395" y="654" type="line"/>
      <point x="392" y="659" type="line"/>
      <point x="354.6677643232103" y="670.7329883555625"/>
      <point x="299.7226277372263" y="679.0"/>
      <point x="245" y="679" type="curve" smooth="yes"/>
      <point x="107" y="679"/>
      <point x="30" y="609"/>
      <point x="30" y="345" type="curve" smooth="yes"/>
      <point x="30" y="82"/>
      <point x="105" y="-9"/>
    </contour>
  </outline>
</glyph>
<glyph name="D" format="2">
	<advance width="498"/>
	<unicode hex="0044"/>
	<outline>
		<contour>
			<point x="53" y="0" type="line"/>
			<point x="208" y="0" type="line" smooth="yes"/>
			<point x="375" y="0"/>
			<point x="458" y="110"/>
			<point x="458" y="331" type="curve" smooth="yes"/>
			<point x="458" y="558"/>
			<point x="387" y="670"/>
			<point x="245" y="670" type="curve" smooth="yes"/>
			<point x="53" y="670" type="line"/>
			<point x="48" y="661" type="line"/>
			<point x="53" y="548"/>
			<point x="55" y="440"/>
			<point x="55" y="337" type="curve" smooth="yes"/>
			<point x="55" y="234"/>
			<point x="53" y="127"/>
			<point x="48" y="12" type="curve"/>
		</contour>
		<contour>
			<point x="311" y="571"/>
			<point x="345" y="498"/>
			<point x="345" y="331" type="curve" smooth="yes"/>
			<point x="345" y="168"/>
			<point x="307" y="96"/>
			<point x="220" y="96" type="curve" smooth="yes"/>
			<point x="121" y="96" type="line"/>
			<point x="160" y="66" type="line"/>
			<point x="160" y="114"/>
			<point x="155" y="194"/>
			<point x="155" y="339" type="curve" smooth="yes"/>
			<point x="155" y="469"/>
			<point x="157" y="549"/>
			<point x="160" y="601" type="curve"/>
			<point x="131" y="571" type="line"/>
			<point x="233" y="571" type="line" smooth="yes"/>
		</contour>
	</outline>
</glyph>
<glyph name="E" format="2">
  <advance width="430"/>
  <unicode hex="0045"/>
  <outline>
    <contour>
      <point x="160" y="335" type="curve" smooth="yes"/>
      <point x="160" y="172"/>
      <point x="162" y="96"/>
      <point x="168" y="53" type="curve"/>
      <point x="134" y="89" type="line"/>
      <point x="328" y="89"/>
      <point x="385" y="97"/>
      <point x="385" y="97" type="curve"/>
      <point x="390" y="88" type="line"/>
      <point x="390" y="10" type="line"/>
      <point x="385" y="0" type="line"/>
      <point x="362.39387901588475" y="3.767686830685873"/>
      <point x="303.27022881644166" y="3.060638092096902"/>
      <point x="230" y="4" type="curve"/>
      <point x="145.15597489039675" y="5.06055031387004"/>
      <point x="99.9594607245289" y="3.1367065621764336"/>
      <point x="55" y="0" type="curve"/>
      <point x="50" y="10" type="line"/>
      <point x="50" y="10"/>
      <point x="60" y="190"/>
      <point x="60" y="335" type="curve" smooth="yes"/>
      <point x="60" y="480"/>
      <point x="50" y="660"/>
      <point x="50" y="660" type="curve"/>
      <point x="55" y="670" type="line"/>
      <point x="102" y="669"/>
      <point x="138.00343577079457" y="665.0000350588857"/>
      <point x="236" y="666" type="curve"/>
      <point x="325.0" y="666.0"/>
      <point x="364" y="669"/>
      <point x="385" y="670" type="curve"/>
      <point x="390" y="660" type="line"/>
      <point x="390" y="574" type="line"/>
      <point x="385" y="565" type="line"/>
      <point x="385" y="565"/>
      <point x="328" y="573"/>
      <point x="134" y="573" type="curve"/>
      <point x="168" y="617" type="line"/>
      <point x="162" y="574"/>
      <point x="160" y="498"/>
    </contour>
    <contour>
      <point x="100" y="293" type="curve"/>
      <point x="100" y="377" type="line"/>
      <point x="238" y="377"/>
      <point x="321" y="385"/>
      <point x="321" y="385" type="curve"/>
      <point x="331" y="381" type="line"/>
      <point x="331" y="289" type="line"/>
      <point x="321" y="285" type="line"/>
      <point x="321" y="285"/>
      <point x="241" y="293"/>
    </contour>
  </outline>
</glyph>
<glyph name="F" format="2">
	<advance width="387"/>
	<unicode hex="0046"/>
	<outline>
		<contour>
			<point x="164" y="-2" type="line"/>
			<point x="131" y="0"/>
			<point x="76" y="0"/>
			<point x="45" y="-2" type="curve"/>
			<point x="40" y="8" type="line"/>
			<point x="40" y="8"/>
			<point x="56" y="200"/>
			<point x="56" y="355" type="curve" smooth="yes"/>
			<point x="56" y="490"/>
			<point x="47" y="658"/>
			<point x="47" y="658" type="curve"/>
			<point x="52" y="668" type="line"/>
			<point x="98" y="669"/>
			<point x="133" y="666"/>
			<point x="226" y="666" type="curve"/>
			<point x="320" y="666"/>
			<point x="360" y="668"/>
			<point x="382" y="668" type="curve"/>
			<point x="387" y="658" type="line"/>
			<point x="387" y="572" type="line"/>
			<point x="382" y="563" type="line"/>
			<point x="382" y="563"/>
			<point x="239" y="571"/>
			<point x="131" y="571" type="curve"/>
			<point x="165" y="615" type="line"/>
			<point x="160" y="576"/>
			<point x="157" y="509"/>
			<point x="157" y="363" type="curve" smooth="yes"/>
			<point x="157" y="153"/>
			<point x="161" y="101"/>
			<point x="171" y="8" type="curve"/>
		</contour>
		<contour>
			<point x="97" y="291" type="curve"/>
			<point x="97" y="375" type="line"/>
			<point x="196" y="375"/>
			<point x="318" y="383"/>
			<point x="318" y="383" type="curve"/>
			<point x="328" y="379" type="line"/>
			<point x="328" y="287" type="line"/>
			<point x="318" y="283" type="line"/>
			<point x="318" y="283"/>
			<point x="199" y="291"/>
		</contour>
	</outline>
</glyph>
<glyph name="G" format="2">
	<advance width="500"/>
	<unicode hex="0047"/>
	<outline>
		<contour>
			<point x="161" y="335" type="curve" smooth="yes"/>
			<point x="161" y="175"/>
			<point x="209" y="90"/>
			<point x="295" y="90" type="curve" smooth="yes"/>
			<point x="341" y="90"/>
			<point x="396" y="110"/>
			<point x="452" y="154" type="curve"/>
			<point x="365" y="43" type="line"/>
			<point x="371" y="86"/>
			<point x="371" y="129"/>
			<point x="371" y="232" type="curve"/>
			<point x="371" y="282"/>
			<point x="371" y="328"/>
			<point x="365" y="365" type="curve"/>
			<point x="381" y="301" type="line"/>
			<point x="260" y="301" type="line"/>
			<point x="255" y="306" type="line"/>
			<point x="255" y="376" type="line"/>
			<point x="260" y="381" type="line"/>
			<point x="274" y="379"/>
			<point x="287" y="379"/>
			<point x="357" y="379" type="curve"/>
			<point x="414" y="379"/>
			<point x="437" y="379"/>
			<point x="457" y="381" type="curve"/>
			<point x="462" y="376" type="line"/>
			<point x="457" y="339"/>
			<point x="457" y="290"/>
			<point x="457" y="234" type="curve"/>
			<point x="457" y="150"/>
			<point x="457" y="116"/>
			<point x="462" y="82" type="curve"/>
			<point x="461" y="77" type="line"/>
			<point x="380" y="19"/>
			<point x="307" y="-10"/>
			<point x="246" y="-10" type="curve" smooth="yes"/>
			<point x="124" y="-10"/>
			<point x="50" y="105"/>
			<point x="50" y="335" type="curve" smooth="yes"/>
			<point x="50" y="615"/>
			<point x="161" y="679"/>
			<point x="271" y="679" type="curve" smooth="yes"/>
			<point x="330" y="679"/>
			<point x="389" y="661"/>
			<point x="431" y="648" type="curve"/>
			<point x="434" y="643" type="line"/>
			<point x="426" y="553" type="line"/>
			<point x="422" y="551" type="line"/>
			<point x="382" y="566"/>
			<point x="340" y="579"/>
			<point x="301" y="579" type="curve" smooth="yes"/>
			<point x="223" y="579"/>
			<point x="161" y="526"/>
		</contour>
	</outline>
</glyph>
<glyph name="H" format="2">
  <advance width="634"/>
  <unicode hex="0048"/>
  <outline>
    <contour>
      <point x="315" y="401" type="curve" smooth="yes"/>
      <point x="243" y="401"/>
      <point x="191" y="403"/>
      <point x="185" y="403" type="curve"/>
      <point x="185" y="290" type="line"/>
      <point x="192" y="290"/>
      <point x="240" y="292"/>
      <point x="315" y="292" type="curve" smooth="yes"/>
      <point x="390" y="292"/>
      <point x="439" y="290"/>
      <point x="446" y="290" type="curve"/>
      <point x="446" y="403" type="line"/>
      <point x="440" y="403"/>
      <point x="387" y="401"/>
    </contour>
    <contour>
      <point x="100" y="632" type="line"/>
      <point x="100" y="632"/>
      <point x="110" y="473"/>
      <point x="110" y="352" type="curve" smooth="yes"/>
      <point x="110" y="250"/>
      <point x="100" y="10"/>
      <point x="100" y="10" type="curve"/>
      <point x="105" y="0" type="line"/>
      <point x="215" y="0" type="line"/>
      <point x="220" y="10" type="line"/>
      <point x="220" y="10"/>
      <point x="210" y="253"/>
      <point x="210" y="352" type="curve" smooth="yes"/>
      <point x="210" y="475"/>
      <point x="205" y="618"/>
      <point x="205" y="618" type="curve"/>
      <point x="205" y="657"/>
      <point x="190" y="680"/>
      <point x="149" y="680" type="curve"/>
      <point x="115" y="680"/>
      <point x="84" y="673"/>
      <point x="50" y="661" type="curve"/>
      <point x="57" y="581" type="line"/>
      <point x="119" y="585" type="line"/>
    </contour>
    <contour>
      <point x="534" y="48" type="line"/>
      <point x="534" y="48"/>
      <point x="524" y="221"/>
      <point x="524" y="352" type="curve" smooth="yes"/>
      <point x="524" y="444"/>
      <point x="534" y="660"/>
      <point x="534" y="660" type="curve"/>
      <point x="529" y="670" type="line"/>
      <point x="419" y="670" type="line"/>
      <point x="414" y="660" type="line"/>
      <point x="414" y="660"/>
      <point x="424" y="441"/>
      <point x="424" y="352" type="curve" smooth="yes"/>
      <point x="424" y="218"/>
      <point x="429" y="62"/>
      <point x="429" y="62" type="curve"/>
      <point x="429" y="23"/>
      <point x="444" y="0"/>
      <point x="485" y="0" type="curve"/>
      <point x="519" y="0"/>
      <point x="550" y="7"/>
      <point x="584" y="19" type="curve"/>
      <point x="577" y="99" type="line"/>
      <point x="515" y="95" type="line"/>
    </contour>
  </outline>
</glyph>
<glyph name="I" format="2">
	<advance width="363"/>
	<unicode hex="0049"/>
	<outline>
		<contour>
			<point x="155" y="577" type="curve"/>
			<point x="128" y="604" type="line"/>
			<point x="131" y="532"/>
			<point x="136" y="406"/>
			<point x="136" y="335" type="curve" smooth="yes"/>
			<point x="136" y="262"/>
			<point x="131" y="126"/>
			<point x="128" y="55" type="curve"/>
			<point x="244" y="55" type="line"/>
			<point x="241" y="127"/>
			<point x="236" y="264"/>
			<point x="236" y="335" type="curve" smooth="yes"/>
			<point x="236" y="404"/>
			<point x="241" y="534"/>
			<point x="244" y="607" type="curve"/>
			<point x="210" y="576" type="line"/>
			<point x="239" y="574"/>
			<point x="297" y="572"/>
			<point x="334" y="569" type="curve"/>
			<point x="350" y="584" type="line"/>
			<point x="349" y="659" type="line"/>
			<point x="337" y="672" type="line"/>
			<point x="277" y="671"/>
			<point x="231" y="670"/>
			<point x="185" y="670" type="curve" smooth="yes"/>
			<point x="140" y="670"/>
			<point x="93" y="671"/>
			<point x="31" y="672" type="curve"/>
			<point x="22" y="660" type="line"/>
			<point x="22" y="584" type="line"/>
			<point x="31" y="569" type="line"/>
			<point x="79" y="573"/>
			<point x="119" y="576"/>
		</contour>
		<contour>
			<point x="33" y="-2" type="line"/>
			<point x="94" y="-1"/>
			<point x="140" y="0"/>
			<point x="185" y="0" type="curve" smooth="yes"/>
			<point x="231" y="0"/>
			<point x="276" y="-1"/>
			<point x="336" y="-2" type="curve"/>
			<point x="348" y="11" type="line"/>
			<point x="349" y="88" type="line"/>
			<point x="333" y="103" type="line"/>
			<point x="274" y="98"/>
			<point x="229" y="96"/>
			<point x="184" y="96" type="curve" smooth="yes"/>
			<point x="139" y="96"/>
			<point x="93" y="98"/>
			<point x="32" y="103" type="curve"/>
			<point x="23" y="88" type="line"/>
			<point x="24" y="10" type="line"/>
		</contour>
	</outline>
</glyph>
<glyph name="L" format="2">
	<advance width="400"/>
	<unicode hex="004C"/>
	<outline>
		<contour>
			<point x="170" y="252" type="curve"/>
			<point x="170" y="53" type="line"/>
			<point x="134" y="99" type="line"/>
			<point x="268" y="99"/>
			<point x="375" y="107"/>
			<point x="375" y="107" type="curve"/>
			<point x="380" y="98" type="line"/>
			<point x="380" y="10" type="line"/>
			<point x="375" y="0" type="line"/>
			<point x="322" y="3"/>
			<point x="260.59756" y="4"/>
			<point x="216" y="4" type="curve" smooth="yes"/>
			<point x="171.62179" y="4"/>
			<point x="123" y="3"/>
			<point x="55" y="0" type="curve"/>
			<point x="50" y="10" type="line"/>
			<point x="50" y="10"/>
			<point x="60" y="190"/>
			<point x="60" y="335" type="curve" smooth="yes"/>
			<point x="60" y="472"/>
			<point x="54" y="601"/>
			<point x="50" y="660" type="curve"/>
			<point x="55" y="670" type="line"/>
			<point x="80" y="670"/>
			<point x="156" y="670"/>
			<point x="175" y="670" type="curve"/>
			<point x="180" y="660" type="line"/>
			<point x="172.93628" y="600.46291"/>
			<point x="170" y="467"/>
		</contour>
	</outline>
</glyph>
<glyph name="N" format="2">
	<advance width="583"/>
	<unicode hex="004E"/>
	<anchor x="330" y="670" name="top"/>
	<outline>
		<contour>
			<point x="419" y="55" type="curve"/>
			<point x="434" y="82" type="line"/>
			<point x="389" y="203" type="line"/>
			<point x="201" y="670" type="line"/>
			<point x="176" y="670"/>
			<point x="107" y="670"/>
			<point x="80" y="670" type="curve"/>
			<point x="75" y="664" type="line"/>
			<point x="79" y="635"/>
			<point x="90" y="458"/>
			<point x="90" y="348" type="curve" smooth="yes"/>
			<point x="90" y="82"/>
			<point x="90" y="152"/>
			<point x="80" y="10" type="curve"/>
			<point x="85" y="0" type="line"/>
			<point x="194" y="0" type="line"/>
			<point x="199" y="10" type="line"/>
			<point x="188" y="152"/>
			<point x="187" y="86"/>
			<point x="187" y="410" type="curve" smooth="yes"/>
			<point x="187" y="447"/>
			<point x="134" y="603"/>
			<point x="132" y="629" type="curve"/>
			<point x="141" y="568" type="line"/>
			<point x="198" y="407" type="line"/>
			<point x="375" y="0" type="line"/>
			<point x="400" y="0"/>
			<point x="476" y="0"/>
			<point x="503" y="0" type="curve"/>
			<point x="508" y="6" type="line"/>
			<point x="504" y="35"/>
			<point x="493" y="212"/>
			<point x="493" y="322" type="curve" smooth="yes"/>
			<point x="493" y="588"/>
			<point x="493" y="518"/>
			<point x="503" y="660" type="curve"/>
			<point x="498" y="670" type="line"/>
			<point x="389" y="670" type="line"/>
			<point x="384" y="660" type="line"/>
			<point x="395" y="518"/>
			<point x="396" y="584"/>
			<point x="396" y="260" type="curve" smooth="yes"/>
			<point x="396" y="178"/>
			<point x="417" y="124"/>
		</contour>
	</outline>
</glyph>
<glyph name="O" format="2">
	<advance width="527"/>
	<unicode hex="004F"/>
	<outline>
		<contour>
			<point x="263" y="90" type="curve" smooth="yes"/>
			<point x="352" y="90"/>
			<point x="376" y="143"/>
			<point x="376" y="335" type="curve" smooth="yes"/>
			<point x="376" y="527"/>
			<point x="352" y="580"/>
			<point x="263" y="580" type="curve" smooth="yes"/>
			<point x="175" y="580"/>
			<point x="151" y="527"/>
			<point x="151" y="335" type="curve" smooth="yes"/>
			<point x="151" y="143"/>
			<point x="175" y="90"/>
		</contour>
		<contour>
			<point x="263" y="-10" type="curve" smooth="yes"/>
			<point x="108" y="-10"/>
			<point x="40" y="95"/>
			<point x="40" y="335" type="curve" smooth="yes"/>
			<point x="40" y="575"/>
			<point x="108" y="680"/>
			<point x="263" y="680" type="curve" smooth="yes"/>
			<point x="419" y="680"/>
			<point x="487" y="575"/>
			<point x="487" y="335" type="curve" smooth="yes"/>
			<point x="487" y="95"/>
			<point x="419" y="-10"/>
		</contour>
	</outline>
</glyph>
<glyph name="P" format="2">
  <advance width="482"/>
  <unicode hex="0050"/>
  <outline>
    <contour>
      <point x="155" y="335" type="curve"/>
      <point x="155" y="236"/>
      <point x="170" y="10"/>
      <point x="170" y="10" type="curve"/>
      <point x="165" y="0" type="line"/>
      <point x="55" y="0" type="line"/>
      <point x="50" y="10" type="line"/>
      <point x="50" y="10"/>
      <point x="60" y="233"/>
      <point x="60" y="335" type="curve"/>
      <point x="60" y="437"/>
      <point x="50" y="660"/>
      <point x="50" y="660" type="curve"/>
      <point x="55" y="670" type="line"/>
      <point x="206" y="670" type="line" smooth="yes"/>
      <point x="361.62731" y="670"/>
      <point x="447" y="617"/>
      <point x="447" y="445" type="curve" smooth="yes"/>
      <point x="447" y="282"/>
      <point x="352.12281" y="210"/>
      <point x="135" y="210" type="curve"/>
      <point x="135" y="310" type="line"/>
      <point x="293.18487" y="310"/>
      <point x="343" y="341"/>
      <point x="343" y="438" type="curve" smooth="yes"/>
      <point x="343" y="551"/>
      <point x="290.40415" y="577.90074"/>
      <point x="128" y="570" type="curve"/>
      <point x="161" y="617" type="line"/>
      <point x="158" y="531"/>
      <point x="155" y="435"/>
    </contour>
  </outline>
</glyph>
<glyph name="Q" format="2">
	<advance width="527"/>
	<unicode hex="0051"/>
	<outline>
		<contour>
			<point x="263" y="-10" type="curve" smooth="yes"/>
			<point x="430" y="-10"/>
			<point x="487" y="78"/>
			<point x="487" y="335" type="curve" smooth="yes"/>
			<point x="487" y="592"/>
			<point x="430" y="680"/>
			<point x="263" y="680" type="curve" smooth="yes"/>
			<point x="97" y="680"/>
			<point x="40" y="592"/>
			<point x="40" y="335" type="curve" smooth="yes"/>
			<point x="40" y="78"/>
			<point x="97" y="-10"/>
		</contour>
		<contour>
			<point x="263" y="90" type="curve" smooth="yes"/>
			<point x="175" y="90"/>
			<point x="151" y="143"/>
			<point x="151" y="335" type="curve" smooth="yes"/>
			<point x="151" y="527"/>
			<point x="175" y="580"/>
			<point x="263" y="580" type="curve" smooth="yes"/>
			<point x="352" y="580"/>
			<point x="376" y="527"/>
			<point x="376" y="335" type="curve" smooth="yes"/>
			<point x="376" y="143"/>
			<point x="352" y="90"/>
		</contour>
		<contour>
			<point x="261" y="-147"/>
			<point x="293" y="-188"/>
			<point x="364" y="-188" type="curve" smooth="yes"/>
			<point x="399" y="-188"/>
			<point x="429" y="-176"/>
			<point x="486" y="-140" type="curve"/>
			<point x="438" y="-64" type="line"/>
			<point x="333" y="-120" type="line"/>
			<point x="386" y="-137" type="line"/>
			<point x="339" y="-84"/>
			<point x="296" y="2"/>
			<point x="243" y="81" type="curve"/>
			<point x="186" y="55" type="line"/>
		</contour>
	</outline>
</glyph>
<glyph name="T" format="2">
<<<<<<< Updated upstream
	<advance width="555"/>
	<unicode hex="0054"/>
	<outline>
		<contour>
			<point x="278" y="670" type="line"/>
			<point x="278" y="568" type="line"/>
		</contour>
		<contour>
			<point x="228" y="352" type="line"/>
			<point x="228" y="441"/>
			<point x="218" y="660"/>
			<point x="218" y="660" type="curve"/>
			<point x="223" y="670" type="line"/>
			<point x="333" y="670" type="line"/>
			<point x="338" y="660" type="line"/>
			<point x="338" y="660"/>
			<point x="328" y="444"/>
			<point x="328" y="352" type="curve" smooth="yes"/>
			<point x="328" y="253"/>
			<point x="338" y="10"/>
			<point x="338" y="10" type="curve"/>
			<point x="333" y="0" type="line"/>
			<point x="223" y="0" type="line"/>
			<point x="218" y="10" type="line"/>
			<point x="218" y="10"/>
			<point x="228" y="213"/>
			<point x="228" y="315" type="curve" smooth="yes"/>
		</contour>
		<contour>
			<point x="315" y="591" type="line"/>
			<point x="309" y="670" type="line"/>
			<point x="408" y="670"/>
			<point x="511" y="680"/>
			<point x="511" y="680" type="curve"/>
			<point x="521" y="675" type="line"/>
			<point x="521" y="560" type="line"/>
			<point x="511" y="555" type="line"/>
			<point x="511" y="555"/>
			<point x="435" y="566"/>
			<point x="333" y="566" type="curve"/>
		</contour>
		<contour>
			<point x="216" y="660" type="move"/>
			<point x="221" y="670" type="line"/>
		</contour>
		<contour>
			<point x="239" y="591" type="line"/>
			<point x="221" y="566" type="line"/>
			<point x="119" y="566"/>
			<point x="43" y="555"/>
			<point x="43" y="555" type="curve"/>
			<point x="33" y="560" type="line"/>
			<point x="33" y="675" type="line"/>
			<point x="43" y="680" type="line"/>
			<point x="43" y="680"/>
			<point x="146" y="670"/>
			<point x="245" y="670" type="curve"/>
=======
	<advance width="468"/>
	<unicode hex="0054"/>
	<outline>
		<contour>
			<point x="185" y="352" type="line"/>
			<point x="185" y="441"/>
			<point x="175" y="660"/>
			<point x="175" y="660" type="curve"/>
			<point x="180" y="670" type="line"/>
			<point x="290" y="670" type="line"/>
			<point x="295" y="660" type="line"/>
			<point x="295" y="660"/>
			<point x="285" y="444"/>
			<point x="285" y="352" type="curve" smooth="yes"/>
			<point x="285" y="253"/>
			<point x="295" y="6"/>
			<point x="295" y="6" type="curve"/>
			<point x="290" y="-4" type="line"/>
			<point x="180" y="-4" type="line"/>
			<point x="175" y="6" type="line"/>
			<point x="175" y="6"/>
			<point x="185" y="213"/>
			<point x="185" y="315" type="curve" smooth="yes"/>
		</contour>
		<contour>
			<point x="242" y="595" type="line"/>
			<point x="236" y="670" type="line"/>
			<point x="330.09901" y="670"/>
			<point x="428" y="680"/>
			<point x="428" y="680" type="curve"/>
			<point x="438" y="675" type="line"/>
			<point x="438" y="574" type="line"/>
			<point x="428" y="569" type="line"/>
			<point x="428" y="569"/>
			<point x="356.26966" y="580"/>
			<point x="260" y="580" type="curve"/>
		</contour>
		<contour>
			<point x="173" y="660" type="move"/>
			<point x="178" y="670" type="line"/>
		</contour>
		<contour>
			<point x="226" y="595" type="line"/>
			<point x="208" y="580" type="line"/>
			<point x="111.73034" y="580"/>
			<point x="40" y="569"/>
			<point x="40" y="569" type="curve"/>
			<point x="30" y="574" type="line"/>
			<point x="30" y="675" type="line"/>
			<point x="40" y="680" type="line"/>
			<point x="40" y="680"/>
			<point x="138" y="670"/>
			<point x="232" y="670" type="curve"/>
>>>>>>> Stashed changes
		</contour>
	</outline>
</glyph>
<glyph name="U" format="2">
	<advance width="500"/>
	<unicode hex="0055"/>
	<outline>
		<contour>
			<point x="252" y="-10" type="curve" smooth="yes"/>
			<point x="26" y="-10"/>
			<point x="26" y="169"/>
			<point x="26" y="664" type="curve"/>
			<point x="30" y="670" type="line"/>
			<point x="151" y="670" type="line"/>
			<point x="154" y="665" type="line"/>
			<point x="154" y="169"/>
			<point x="157" y="92"/>
			<point x="252" y="92" type="curve" smooth="yes"/>
			<point x="339" y="92"/>
			<point x="338" y="169"/>
			<point x="338" y="665" type="curve"/>
			<point x="341" y="670" type="line"/>
			<point x="463" y="670" type="line"/>
			<point x="467" y="664" type="line"/>
			<point x="467" y="169"/>
			<point x="466" y="-10"/>
		</contour>
	</outline>
</glyph>
<glyph name="V" format="2">
  <advance width="490"/>
  <unicode hex="0056"/>
  <outline>
    <contour>
      <point x="478" y="660" type="line"/>
      <point x="458" y="576"/>
      <point x="432" y="487"/>
      <point x="403" y="348" type="curve" smooth="yes"/>
      <point x="373" y="207"/>
      <point x="346.0" y="96"/>
      <point x="330" y="10" type="curve"/>
      <point x="324" y="0" type="line"/>
      <point x="185" y="0" type="line"/>
      <point x="185" y="0"/>
      <point x="179" y="10"/>
      <point x="179" y="10" type="curve"/>
      <point x="179.0" y="10.0"/>
      <point x="124" y="235"/>
      <point x="96" y="350" type="curve" smooth="yes"/>
      <point x="68" y="464"/>
      <point x="15.0" y="660.0"/>
      <point x="15" y="660" type="curve"/>
      <point x="20" y="670" type="line"/>
      <point x="20.0" y="670.0"/>
      <point x="140.0" y="670.0"/>
      <point x="140" y="670" type="curve"/>
      <point x="146" y="660" type="line"/>
      <point x="146.0" y="660.0"/>
      <point x="180.06047342044172" y="482.71779070460525"/>
      <point x="201" y="385" type="curve" smooth="yes"/>
      <point x="226.0112857376149" y="269.94808560697135"/>
      <point x="281.0" y="53.0"/>
      <point x="281" y="53" type="curve"/>
      <point x="249" y="53" type="line"/>
      <point x="249.0" y="53.0"/>
      <point x="283.93802646234207" y="215.6602932009862"/>
      <point x="311" y="364" type="curve" smooth="yes"/>
      <point x="337" y="509"/>
      <point x="360.0" y="662.0"/>
      <point x="360" y="662" type="curve"/>
      <point x="367" y="670" type="line"/>
      <point x="367.0" y="670.0"/>
      <point x="472.0" y="670.0"/>
      <point x="472" y="670" type="curve"/>
    </contour>
  </outline>
</glyph>
<glyph name="a" format="2">
  <advance width="466"/>
  <unicode hex="0061"/>
  <anchor x="250" y="510" name="top"/>
  <outline>
    <contour>
      <point x="342" y="-9" type="curve" smooth="yes"/>
      <point x="367" y="-9"/>
      <point x="415" y="-6"/>
      <point x="442" y="0" type="curve"/>
      <point x="446" y="80" type="line"/>
      <point x="346" y="100" type="line"/>
      <point x="394" y="37" type="line"/>
      <point x="394" y="341" type="line" smooth="yes"/>
      <point x="394" y="470.27777777777777"/>
      <point x="331" y="520"/>
      <point x="239" y="520" type="curve" smooth="yes"/>
      <point x="173" y="520"/>
      <point x="121.75550253850919" y="505.8877716570206"/>
      <point x="61" y="478" type="curve"/>
      <point x="60" y="474" type="line"/>
      <point x="82" y="410" type="line"/>
      <point x="85" y="410" type="line"/>
      <point x="127.91073184432412" y="421.70292686663385"/>
      <point x="167.06153846153848" y="430.0"/>
      <point x="212" y="430" type="curve" smooth="yes"/>
      <point x="259.725" y="430.0"/>
      <point x="295" y="408.2528735632184"/>
      <point x="295" y="344" type="curve" smooth="yes"/>
      <point x="295" y="57" type="line" smooth="yes"/>
      <point x="295" y="12"/>
      <point x="306" y="-9"/>
    </contour>
    <contour>
      <point x="220" y="286" type="line" smooth="yes"/>
      <point x="96" y="286"/>
      <point x="40" y="224"/>
      <point x="40" y="127" type="curve" smooth="yes"/>
      <point x="40.0" y="42.0"/>
      <point x="86" y="-10.0"/>
      <point x="169" y="-10" type="curve"/>
      <point x="242.25581395348837" y="-10.0"/>
      <point x="289" y="36"/>
      <point x="304" y="105" type="curve"/>
      <point x="252" y="70" type="line"/>
      <point x="313" y="70" type="line"/>
      <point x="295" y="201" type="line"/>
      <point x="295" y="120"/>
      <point x="269" y="74"/>
      <point x="209" y="74" type="curve" smooth="yes"/>
      <point x="158" y="74"/>
      <point x="135.0" y="105.0"/>
      <point x="135" y="140" type="curve"/>
      <point x="135.0" y="188.2051282051282"/>
      <point x="161.0" y="220"/>
      <point x="226" y="220" type="curve" smooth="yes"/>
      <point x="318" y="220" type="line"/>
      <point x="318" y="286" type="line"/>
    </contour>
  </outline>
</glyph>
<glyph name="b" format="2">
  <advance width="502"/>
  <unicode hex="0062"/>
  <outline>
    <contour>
      <point x="78" y="702" type="line"/>
      <point x="78.0" y="702.0"/>
      <point x="88" y="577"/>
      <point x="88" y="389" type="curve" smooth="yes"/>
      <point x="88.0" y="201"/>
      <point x="78.0" y="10.0"/>
      <point x="78" y="10" type="curve"/>
      <point x="83" y="0" type="line"/>
      <point x="129" y="0" type="line"/>
      <point x="170" y="66" type="line"/>
      <point x="188" y="66" type="line"/>
      <point x="188.0" y="66.0"/>
      <point x="188.0" y="206"/>
      <point x="188" y="397" type="curve" smooth="yes"/>
      <point x="188.0" y="578"/>
      <point x="188.0" y="688.0"/>
      <point x="188" y="688" type="curve"/>
      <point x="188.0" y="727.0"/>
      <point x="172" y="750.0"/>
      <point x="127" y="750" type="curve" smooth="yes"/>
      <point x="96" y="750.0"/>
      <point x="59" y="740"/>
      <point x="27" y="731" type="curve"/>
      <point x="34" y="651" type="line"/>
      <point x="97" y="655" type="line"/>
    </contour>
    <contour>
      <point x="371" y="262" type="curve" smooth="yes"/>
      <point x="371.0" y="133.0"/>
      <point x="338" y="85.0"/>
      <point x="273" y="85" type="curve"/>
      <point x="222" y="85.0"/>
      <point x="195" y="106"/>
      <point x="167" y="122" type="curve"/>
      <point x="155" y="69" type="line"/>
      <point x="176" y="69" type="line"/>
      <point x="214" y="20"/>
      <point x="246" y="-10"/>
      <point x="310" y="-10" type="curve" smooth="yes"/>
      <point x="418" y="-10"/>
      <point x="474.0" y="95.0"/>
      <point x="474" y="275" type="curve" smooth="yes"/>
      <point x="474.0" y="448.0"/>
      <point x="423.0" y="520.0"/>
      <point x="325" y="520" type="curve"/>
      <point x="248.0" y="520.0"/>
      <point x="217" y="489"/>
      <point x="193" y="440" type="curve"/>
      <point x="165" y="440" type="line"/>
      <point x="187" y="260" type="line"/>
      <point x="187" y="387"/>
      <point x="226" y="427"/>
      <point x="275" y="427" type="curve"/>
      <point x="336" y="427.0"/>
      <point x="371.0" y="397.0"/>
    </contour>
  </outline>
</glyph>
<glyph name="c" format="2">
	<advance width="473"/>
	<unicode hex="0063"/>
	<outline>
		<contour>
			<point x="45" y="251" type="curve" smooth="yes"/>
			<point x="45" y="419"/>
			<point x="112" y="520"/>
			<point x="252" y="520" type="curve" smooth="yes"/>
			<point x="381" y="520"/>
			<point x="423" y="446"/>
			<point x="423" y="339" type="curve"/>
			<point x="421" y="337" type="line"/>
			<point x="339" y="327" type="line"/>
			<point x="337" y="329" type="line"/>
			<point x="323" y="395"/>
			<point x="306" y="430"/>
			<point x="243" y="430" type="curve"/>
			<point x="174" y="430"/>
			<point x="146" y="389"/>
			<point x="146" y="258" type="curve" smooth="yes"/>
			<point x="146" y="127"/>
			<point x="176" y="80"/>
			<point x="263" y="80" type="curve" smooth="yes"/>
			<point x="321" y="80"/>
			<point x="354" y="91"/>
			<point x="397" y="102" type="curve"/>
			<point x="400" y="101" type="line"/>
			<point x="424" y="37" type="line"/>
			<point x="423" y="34" type="line"/>
			<point x="367" y="5"/>
			<point x="316" y="-10"/>
			<point x="237" y="-10" type="curve"/>
			<point x="111" y="-10"/>
			<point x="45" y="85"/>
		</contour>
	</outline>
</glyph>
<glyph name="d" format="2">
  <advance width="494"/>
  <unicode hex="0064"/>
  <outline>
    <contour>
      <point x="314" y="679" type="line"/>
      <point x="323" y="570"/>
      <point x="327.0" y="540.8312757201646"/>
      <point x="327" y="254" type="curve" smooth="yes"/>
      <point x="327.0" y="136"/>
      <point x="298.0" y="85.0"/>
      <point x="240" y="85" type="curve" smooth="yes"/>
      <point x="180.04494382022472" y="85.0"/>
      <point x="148.0" y="135.13513513513513"/>
      <point x="148" y="260" type="curve" smooth="yes"/>
      <point x="148.0" y="397.0625"/>
      <point x="169.0" y="430.0"/>
      <point x="235" y="430" type="curve" smooth="yes"/>
      <point x="275.2931034482759" y="430.0"/>
      <point x="300.86975565418" y="416.0596953251675"/>
      <point x="349" y="394" type="curve"/>
      <point x="349" y="442" type="line"/>
      <point x="313" y="442" type="line"/>
      <point x="324" y="432" type="line"/>
      <point x="313.89043722878904" y="477.49303247044924"/>
      <point x="272.0" y="520.0"/>
      <point x="209" y="520" type="curve" smooth="yes"/>
      <point x="110.0" y="520.0"/>
      <point x="37" y="465"/>
      <point x="37" y="255" type="curve" smooth="yes"/>
      <point x="37" y="76"/>
      <point x="100" y="-10.0"/>
      <point x="193" y="-10" type="curve"/>
      <point x="288.8775510204082" y="-10.0"/>
      <point x="348" y="64"/>
      <point x="355" y="123" type="curve"/>
      <point x="306" y="82" type="line"/>
      <point x="359" y="82" type="line"/>
      <point x="326" y="93" type="line"/>
      <point x="326" y="57" type="line" smooth="yes"/>
      <point x="326" y="12.0"/>
      <point x="336.7659574468085" y="-9.0"/>
      <point x="372" y="-9" type="curve" smooth="yes"/>
      <point x="397" y="-9"/>
      <point x="445" y="-6"/>
      <point x="472" y="0" type="curve"/>
      <point x="476" y="80" type="line"/>
      <point x="376" y="100" type="line"/>
      <point x="424" y="37" type="line"/>
      <point x="424" y="322" type="line" smooth="yes"/>
      <point x="424.0" y="555.0"/>
      <point x="429" y="641"/>
      <point x="429" y="688" type="curve"/>
      <point x="429.0" y="727.0"/>
      <point x="413" y="750.0"/>
      <point x="368" y="750" type="curve" smooth="yes"/>
      <point x="337" y="750.0"/>
      <point x="300" y="740"/>
      <point x="268" y="731" type="curve"/>
      <point x="275" y="651" type="line"/>
      <point x="338" y="655" type="line"/>
    </contour>
  </outline>
</glyph>
<glyph name="e" format="2">
  <advance width="470"/>
  <unicode hex="0065"/>
  <outline>
    <contour>
      <point x="35" y="283" type="curve" smooth="yes"/>
      <point x="35" y="492"/>
      <point x="132" y="562"/>
      <point x="250" y="562" type="curve" smooth="yes"/>
      <point x="385" y="562"/>
      <point x="446" y="449"/>
      <point x="440" y="356" type="curve" smooth="yes"/>
      <point x="436" y="295" type="line"/>
      <point x="425" y="282" type="line"/>
      <point x="321" y="282"/>
      <point x="218" y="282"/>
      <point x="114" y="282" type="curve"/>
      <point x="109" y="351" type="line"/>
      <point x="353" y="355" type="line"/>
      <point x="348" y="350" type="line"/>
      <point x="350" y="403"/>
      <point x="335" y="481"/>
      <point x="250" y="481" type="curve" smooth="yes"/>
      <point x="146" y="481"/>
      <point x="142" y="357"/>
      <point x="142" y="281" type="curve" smooth="yes"/>
      <point x="142" y="203"/>
      <point x="147" y="78"/>
      <point x="260" y="78" type="curve" smooth="yes"/>
      <point x="303" y="78"/>
      <point x="352" y="86"/>
      <point x="385" y="111" type="curve"/>
      <point x="397" y="112" type="line"/>
      <point x="434" y="68" type="line"/>
      <point x="433" y="56" type="line"/>
      <point x="394" y="0"/>
      <point x="313" y="-10"/>
      <point x="247" y="-10" type="curve" smooth="yes"/>
      <point x="126" y="-10"/>
      <point x="35" y="45"/>
    </contour>
  </outline>
</glyph>
<glyph name="f" format="2">
	<advance width="357"/>
	<unicode hex="0066"/>
	<outline>
		<contour>
			<point x="106" y="2" type="line"/>
			<point x="217" y="2" type="line"/>
			<point x="225" y="10" type="line"/>
			<point x="207" y="187"/>
			<point x="212" y="373"/>
			<point x="212" y="529" type="curve"/>
			<point x="212" y="648"/>
			<point x="217" y="668"/>
			<point x="232" y="668" type="curve" smooth="yes"/>
			<point x="277" y="668"/>
			<point x="287" y="668"/>
			<point x="333" y="659" type="curve"/>
			<point x="339" y="663" type="line"/>
			<point x="352" y="738" type="line"/>
			<point x="347" y="742" type="line"/>
			<point x="316" y="749"/>
			<point x="281" y="753"/>
			<point x="232" y="753" type="curve" smooth="yes"/>
			<point x="101" y="753"/>
			<point x="112" y="674"/>
			<point x="112" y="527" type="curve"/>
			<point x="113" y="373"/>
			<point x="113" y="184"/>
			<point x="98" y="13" type="curve"/>
		</contour>
		<contour>
			<point x="11" y="419" type="line"/>
			<point x="72" y="420"/>
			<point x="120" y="421"/>
			<point x="165" y="421" type="curve" smooth="yes"/>
			<point x="211" y="421"/>
			<point x="256" y="420"/>
			<point x="316" y="419" type="curve"/>
			<point x="323" y="426" type="line"/>
			<point x="323" y="500" type="line"/>
			<point x="316" y="505" type="line"/>
			<point x="257" y="500"/>
			<point x="209" y="500"/>
			<point x="164" y="500" type="curve" smooth="yes"/>
			<point x="119" y="500"/>
			<point x="71" y="502"/>
			<point x="10" y="507" type="curve"/>
			<point x="3" y="500" type="line"/>
			<point x="4" y="426" type="line"/>
		</contour>
	</outline>
</glyph>
<glyph name="g" format="2">
	<advance width="511"/>
	<unicode hex="0067"/>
	<outline>
		<contour>
			<point x="254" y="20" type="line"/>
			<point x="98" y="20"/>
			<point x="7" y="11"/>
			<point x="7" y="-110" type="curve" smooth="yes"/>
			<point x="7" y="-205"/>
			<point x="93" y="-261"/>
			<point x="232" y="-261" type="curve" smooth="yes"/>
			<point x="416" y="-261"/>
			<point x="473" y="-165"/>
			<point x="474" y="-70" type="curve" smooth="yes"/>
			<point x="476" y="57"/>
			<point x="392" y="86"/>
			<point x="262" y="86" type="curve" smooth="yes"/>
			<point x="96" y="86" type="line"/>
			<point x="116" y="59" type="line"/>
			<point x="179" y="193" type="line"/>
			<point x="143" y="209" type="line"/>
			<point x="89" y="177"/>
			<point x="43" y="114"/>
			<point x="43" y="69" type="curve" smooth="yes"/>
			<point x="43" y="36"/>
			<point x="65" y="9"/>
			<point x="117" y="5" type="curve"/>
			<point x="346" y="8"/>
			<point x="388" y="13"/>
			<point x="389" y="-71" type="curve" smooth="yes"/>
			<point x="390" y="-146"/>
			<point x="355" y="-180"/>
			<point x="235" y="-180" type="curve" smooth="yes"/>
			<point x="121" y="-180"/>
			<point x="99" y="-148"/>
			<point x="97" y="-83" type="curve" smooth="yes"/>
			<point x="95" y="-25"/>
			<point x="117" y="8"/>
			<point x="261" y="8" type="curve" smooth="yes"/>
		</contour>
		<contour>
			<point x="242" y="143" type="curve" smooth="yes"/>
			<point x="346" y="144"/>
			<point x="417" y="201"/>
			<point x="417" y="339" type="curve" smooth="yes"/>
			<point x="417" y="466"/>
			<point x="346" y="521"/>
			<point x="242" y="520" type="curve" smooth="yes"/>
			<point x="138" y="519"/>
			<point x="57" y="466"/>
			<point x="57" y="339" type="curve" smooth="yes"/>
			<point x="57" y="208"/>
			<point x="138" y="142"/>
		</contour>
		<contour>
			<point x="240" y="224" type="curve" smooth="yes"/>
			<point x="168" y="224"/>
			<point x="150" y="264"/>
			<point x="150" y="339" type="curve" smooth="yes"/>
			<point x="150" y="416"/>
			<point x="173" y="444"/>
			<point x="240" y="444" type="curve" smooth="yes"/>
			<point x="299" y="444"/>
			<point x="323" y="415"/>
			<point x="323" y="339" type="curve" smooth="yes"/>
			<point x="323" y="263"/>
			<point x="310" y="224"/>
		</contour>
		<contour>
			<point x="517" y="446" type="line"/>
			<point x="514" y="561" type="line"/>
			<point x="416" y="561"/>
			<point x="387" y="506"/>
			<point x="387" y="445" type="curve"/>
			<point x="353" y="446" type="line"/>
			<point x="370" y="415" type="line"/>
		</contour>
	</outline>
</glyph>
<glyph name="h" format="2">
	<advance width="626"/>
	<unicode hex="0068"/>
	<outline>
		<contour>
			<point x="506" y="37" type="line"/>
			<point x="506" y="383" type="line" smooth="yes"/>
			<point x="506" y="479"/>
			<point x="470" y="522"/>
			<point x="381" y="522" type="curve" smooth="yes"/>
			<point x="311" y="522"/>
			<point x="267" y="494"/>
			<point x="231" y="440" type="curve"/>
			<point x="206" y="440" type="line"/>
			<point x="206" y="383" type="line"/>
			<point x="237" y="395"/>
			<point x="290" y="417"/>
			<point x="347" y="417" type="curve"/>
			<point x="399" y="417"/>
			<point x="406" y="390"/>
			<point x="406" y="305" type="curve"/>
			<point x="406" y="226"/>
			<point x="396" y="120"/>
			<point x="396" y="65" type="curve" smooth="yes"/>
			<point x="396" y="14"/>
			<point x="415" y="-9"/>
			<point x="454" y="-9" type="curve" smooth="yes"/>
			<point x="479" y="-9"/>
			<point x="525" y="-6"/>
			<point x="552" y="0" type="curve"/>
			<point x="556" y="80" type="line"/>
			<point x="458" y="100" type="line"/>
		</contour>
		<contour>
			<point x="120" y="702" type="line"/>
			<point x="120" y="702"/>
			<point x="130" y="436"/>
			<point x="130" y="350" type="curve" smooth="yes"/>
			<point x="130" y="262"/>
			<point x="120" y="10"/>
			<point x="120" y="10" type="curve"/>
			<point x="125" y="0" type="line"/>
			<point x="235" y="0" type="line"/>
			<point x="240" y="10" type="line"/>
			<point x="240" y="10"/>
			<point x="230" y="264"/>
			<point x="230" y="350" type="curve" smooth="yes"/>
			<point x="230" y="403"/>
			<point x="225" y="688"/>
			<point x="225" y="688" type="curve"/>
			<point x="225" y="727"/>
			<point x="210" y="750"/>
			<point x="169" y="750" type="curve"/>
			<point x="138" y="750"/>
			<point x="101" y="742"/>
			<point x="70" y="731" type="curve"/>
			<point x="77" y="651" type="line"/>
			<point x="139" y="655" type="line"/>
		</contour>
	</outline>
</glyph>
<glyph name="i" format="2">
  <advance width="250"/>
  <unicode hex="0069"/>
  <outline>
    <contour>
      <point x="79" y="292" type="curve"/>
      <point x="79" y="165"/>
      <point x="70" y="121"/>
      <point x="70" y="65" type="curve" smooth="yes"/>
      <point x="70" y="14"/>
      <point x="89" y="-9"/>
      <point x="128" y="-9" type="curve" smooth="yes"/>
      <point x="153" y="-9"/>
      <point x="199" y="-6"/>
      <point x="226" y="0" type="curve"/>
      <point x="230" y="80" type="line"/>
      <point x="132" y="100" type="line"/>
      <point x="180" y="37" type="line"/>
      <point x="175" y="66"/>
      <point x="175" y="129"/>
      <point x="175" y="308" type="curve"/>
      <point x="175" y="426"/>
      <point x="175" y="491"/>
      <point x="175" y="491" type="curve"/>
      <point x="175" y="530"/>
      <point x="160" y="553"/>
      <point x="119" y="553" type="curve"/>
      <point x="88" y="553"/>
      <point x="51" y="545"/>
      <point x="20" y="534" type="curve"/>
      <point x="27" y="454" type="line"/>
      <point x="89" y="458" type="line"/>
      <point x="70" y="505" type="line"/>
      <point x="70" y="505"/>
      <point x="79" y="378"/>
    </contour>
    <contour>
      <point x="55" y="712" type="line" smooth="yes"/>
      <point x="55" y="748"/>
      <point x="72" y="761"/>
      <point x="121" y="761" type="curve" smooth="yes"/>
      <point x="168" y="761"/>
      <point x="185" y="748"/>
      <point x="185" y="712" type="curve" smooth="yes"/>
      <point x="185" y="680" type="line" smooth="yes"/>
      <point x="185" y="644"/>
      <point x="168" y="631"/>
      <point x="121" y="631" type="curve" smooth="yes"/>
      <point x="72" y="631"/>
      <point x="55" y="644"/>
      <point x="55" y="680" type="curve" smooth="yes"/>
    </contour>
  </outline>
</glyph>
<glyph name="l" format="2">
  <advance width="249"/>
  <unicode hex="006C"/>
  <outline>
    <contour>
      <point x="72" y="62" type="curve" smooth="yes"/>
      <point x="70" y="23"/>
      <point x="83" y="2"/>
      <point x="124" y="0" type="curve"/>
      <point x="158" y="-2"/>
      <point x="195" y="1"/>
      <point x="229" y="11" type="curve"/>
      <point x="226" y="91" type="line"/>
      <point x="159" y="90" type="line"/>
      <point x="189" y="62" type="line"/>
      <point x="186" y="140"/>
      <point x="180" y="289"/>
      <point x="180" y="358" type="curve" smooth="yes"/>
      <point x="180" y="525"/>
      <point x="175" y="668"/>
      <point x="175" y="668" type="curve"/>
      <point x="175" y="707"/>
      <point x="160" y="730"/>
      <point x="119" y="730" type="curve"/>
      <point x="85" y="730"/>
      <point x="54" y="723"/>
      <point x="20" y="711" type="curve"/>
      <point x="27" y="631" type="line"/>
      <point x="89" y="635" type="line"/>
      <point x="70" y="682" type="line"/>
      <point x="70" y="682"/>
      <point x="80" y="523"/>
      <point x="80" y="358" type="curve" smooth="yes"/>
      <point x="80" y="287"/>
      <point x="75" y="140"/>
    </contour>
  </outline>
</glyph>
<glyph name="m" format="2">
  <advance width="819"/>
  <unicode hex="006D"/>
  <guideline x="414" y="251" angle="0" identifier="hA9fwbT0CR"/>
  <outline>
    <contour>
      <point x="465" y="390" type="line"/>
      <point x="465" y="460"/>
      <point x="437" y="520"/>
      <point x="336" y="520" type="curve"/>
      <point x="259" y="520"/>
      <point x="206" y="467"/>
      <point x="183" y="395" type="curve"/>
      <point x="219" y="440" type="line"/>
      <point x="183" y="440" type="line"/>
      <point x="199" y="413" type="line"/>
      <point x="199" y="458" type="line" smooth="yes"/>
      <point x="199" y="497"/>
      <point x="183" y="520"/>
      <point x="138" y="520" type="curve"/>
      <point x="109" y="520"/>
      <point x="73" y="512"/>
      <point x="40" y="504" type="curve"/>
      <point x="47" y="421" type="line"/>
      <point x="108" y="425" type="line"/>
      <point x="89" y="472" type="line"/>
      <point x="89" y="472"/>
      <point x="99" y="415"/>
      <point x="99" y="275" type="curve" smooth="yes"/>
      <point x="99" y="77"/>
      <point x="89" y="10"/>
      <point x="89" y="10" type="curve"/>
      <point x="94" y="0" type="line"/>
      <point x="204" y="0" type="line"/>
      <point x="209" y="10" type="line"/>
      <point x="209" y="10"/>
      <point x="199" y="89"/>
      <point x="199" y="275" type="curve" smooth="yes"/>
      <point x="199" y="387"/>
      <point x="226" y="430"/>
      <point x="286" y="430" type="curve" smooth="yes"/>
      <point x="348" y="430"/>
      <point x="365" y="391"/>
      <point x="365" y="275" type="curve"/>
      <point x="365" y="146"/>
      <point x="360" y="61"/>
      <point x="360" y="6" type="curve"/>
      <point x="364" y="0" type="line"/>
      <point x="466" y="0" type="line"/>
      <point x="471" y="6" type="line"/>
      <point x="464" y="87"/>
      <point x="465" y="129"/>
      <point x="465" y="275" type="curve" smooth="yes"/>
      <point x="465" y="384"/>
      <point x="488" y="430"/>
      <point x="553" y="430" type="curve" smooth="yes"/>
      <point x="614" y="430"/>
      <point x="631" y="391"/>
      <point x="631" y="275" type="curve"/>
      <point x="631" y="196"/>
      <point x="627" y="120"/>
      <point x="627" y="65" type="curve" smooth="yes"/>
      <point x="627" y="13"/>
      <point x="658" y="-10"/>
      <point x="698" y="-10" type="curve"/>
      <point x="721" y="-10"/>
      <point x="752" y="-5"/>
      <point x="779" y="-1" type="curve"/>
      <point x="783" y="80" type="line"/>
      <point x="683" y="100" type="line"/>
      <point x="731" y="37" type="line"/>
      <point x="731" y="383" type="line" smooth="yes"/>
      <point x="731" y="467"/>
      <point x="698" y="520"/>
      <point x="599" y="520" type="curve"/>
      <point x="520" y="520"/>
      <point x="455" y="460"/>
      <point x="450" y="394" type="curve"/>
      <point x="485" y="440" type="line"/>
      <point x="449" y="440" type="line"/>
    </contour>
  </outline>
</glyph>
<glyph name="n" format="2">
<<<<<<< Updated upstream
	<advance width="526"/>
	<unicode hex="006E"/>
	<outline>
		<contour>
			<point x="456" y="37" type="line"/>
			<point x="456" y="416" type="line" smooth="yes"/>
			<point x="456" y="512"/>
			<point x="420" y="555"/>
			<point x="331" y="555" type="curve" smooth="yes"/>
			<point x="261" y="555"/>
			<point x="217" y="527"/>
			<point x="181" y="473" type="curve"/>
			<point x="156" y="473" type="line"/>
			<point x="156" y="416" type="line"/>
			<point x="187" y="428"/>
			<point x="240" y="450"/>
			<point x="297" y="450" type="curve"/>
			<point x="349" y="450"/>
			<point x="356" y="423"/>
			<point x="356" y="305" type="curve"/>
			<point x="356" y="226"/>
			<point x="346" y="120"/>
			<point x="346" y="65" type="curve" smooth="yes"/>
			<point x="346" y="14"/>
			<point x="365" y="-9"/>
			<point x="404" y="-9" type="curve" smooth="yes"/>
			<point x="429" y="-9"/>
			<point x="475" y="-6"/>
			<point x="502" y="0" type="curve"/>
			<point x="506" y="80" type="line"/>
			<point x="408" y="100" type="line"/>
		</contour>
		<contour>
			<point x="70" y="505" type="line"/>
			<point x="70" y="505"/>
			<point x="80" y="391"/>
			<point x="80" y="305" type="curve" smooth="yes"/>
			<point x="80" y="217"/>
			<point x="70" y="10"/>
			<point x="70" y="10" type="curve"/>
			<point x="75" y="0" type="line"/>
			<point x="185" y="0" type="line"/>
			<point x="190" y="10" type="line"/>
			<point x="190" y="10"/>
			<point x="180" y="219"/>
			<point x="180" y="305" type="curve" smooth="yes"/>
			<point x="180" y="391"/>
			<point x="175" y="491"/>
			<point x="175" y="491" type="curve"/>
			<point x="175" y="530"/>
			<point x="160" y="553"/>
			<point x="119" y="553" type="curve"/>
			<point x="88" y="553"/>
			<point x="51" y="545"/>
			<point x="20" y="534" type="curve"/>
			<point x="27" y="454" type="line"/>
			<point x="89" y="458" type="line"/>
		</contour>
	</outline>
=======
	<advance width="566"/>
	<unicode hex="006E"/>
	<outline>
		<contour>
			<point x="476" y="37" type="line"/>
			<point x="476" y="373" type="line" smooth="yes"/>
			<point x="476" y="469"/>
			<point x="440" y="512"/>
			<point x="351" y="512" type="curve" smooth="yes"/>
			<point x="281" y="512"/>
			<point x="237" y="484"/>
			<point x="201" y="430" type="curve"/>
			<point x="176" y="430" type="line"/>
			<point x="176" y="373" type="line"/>
			<point x="207" y="385"/>
			<point x="260" y="407"/>
			<point x="317" y="407" type="curve"/>
			<point x="369" y="407"/>
			<point x="376" y="380"/>
			<point x="376" y="275" type="curve"/>
			<point x="376" y="196"/>
			<point x="372" y="120"/>
			<point x="372" y="65" type="curve" smooth="yes"/>
			<point x="372" y="14"/>
			<point x="398" y="-9"/>
			<point x="424" y="-9" type="curve" smooth="yes"/>
			<point x="449" y="-9"/>
			<point x="497" y="-6"/>
			<point x="524" y="0" type="curve"/>
			<point x="528" y="80" type="line"/>
			<point x="428" y="100" type="line"/>
		</contour>
		<contour>
			<point x="90" y="462" type="line"/>
			<point x="90" y="462"/>
			<point x="100" y="408"/>
			<point x="100" y="275" type="curve" smooth="yes"/>
			<point x="100" y="77"/>
			<point x="90" y="10"/>
			<point x="90" y="10" type="curve"/>
			<point x="95" y="0" type="line"/>
			<point x="205" y="0" type="line"/>
			<point x="210" y="10" type="line"/>
			<point x="210" y="10"/>
			<point x="200" y="89"/>
			<point x="200" y="275" type="curve" smooth="yes"/>
			<point x="200" y="348"/>
			<point x="195" y="448"/>
			<point x="195" y="448" type="curve"/>
			<point x="195" y="487"/>
			<point x="180" y="510"/>
			<point x="139" y="510" type="curve"/>
			<point x="108" y="510"/>
			<point x="66" y="502"/>
			<point x="35" y="491" type="curve"/>
			<point x="42" y="411" type="line"/>
			<point x="109" y="415" type="line"/>
		</contour>
	</outline>
>>>>>>> Stashed changes
</glyph>
<glyph name="o" format="2">
	<advance width="489"/>
	<unicode hex="006F"/>
	<guideline x="-28" y="461" angle="0" identifier="9F48ynZFOK"/>
	<outline>
		<contour>
			<point x="244" y="80" type="curve" smooth="yes"/>
			<point x="332" y="80"/>
			<point x="334" y="164"/>
			<point x="334" y="257" type="curve" smooth="yes"/>
			<point x="334" y="341"/>
			<point x="332" y="433"/>
			<point x="244" y="433" type="curve" smooth="yes"/>
			<point x="156" y="433"/>
			<point x="155" y="341"/>
			<point x="155" y="257" type="curve" smooth="yes"/>
			<point x="155" y="164"/>
			<point x="156" y="80"/>
		</contour>
		<contour>
			<point x="244" y="-10" type="curve" smooth="yes"/>
			<point x="117" y="-10"/>
			<point x="45" y="92"/>
			<point x="45" y="257" type="curve" smooth="yes"/>
			<point x="45" y="420"/>
			<point x="117" y="523"/>
			<point x="244" y="523" type="curve" smooth="yes"/>
			<point x="372" y="523"/>
			<point x="444" y="420"/>
			<point x="444" y="257" type="curve" smooth="yes"/>
			<point x="444" y="92"/>
			<point x="372" y="-10"/>
		</contour>
	</outline>
</glyph>
<glyph name="p" format="2">
  <advance width="490"/>
  <unicode hex="0070"/>
  <outline>
    <contour>
      <point x="163" y="416" type="line"/>
      <point x="163" y="500" type="line"/>
      <point x="157" y="511" type="line"/>
      <point x="134.1764705882353" y="511.0"/>
      <point x="84.72549019607843" y="511.0"/>
      <point x="60" y="511" type="curve"/>
      <point x="55" y="500" type="line"/>
      <point x="58.97422653575288" y="474.1675275176063"/>
      <point x="65.0" y="322.0"/>
      <point x="65" y="164" type="curve" smooth="yes"/>
      <point x="65.0" y="-65"/>
      <point x="59" y="-167"/>
      <point x="55" y="-240" type="curve"/>
      <point x="60" y="-250" type="line"/>
      <point x="169" y="-250" type="line"/>
      <point x="174" y="-240" type="line"/>
      <point x="163" y="-115"/>
      <point x="162" y="-80"/>
      <point x="162" y="251" type="curve" smooth="yes"/>
      <point x="162" y="373"/>
      <point x="192" y="426"/>
      <point x="262" y="426" type="curve" smooth="yes"/>
      <point x="313" y="426"/>
      <point x="344" y="366"/>
      <point x="344" y="263" type="curve" smooth="yes"/>
      <point x="344" y="160"/>
      <point x="318" y="80"/>
      <point x="257" y="80" type="curve"/>
      <point x="213" y="80"/>
      <point x="181" y="93"/>
      <point x="139" y="114" type="curve"/>
      <point x="129" y="66" type="line"/>
      <point x="179" y="66" type="line"/>
      <point x="154" y="101" type="line"/>
      <point x="169" y="25"/>
      <point x="211" y="-10"/>
      <point x="280" y="-10" type="curve" smooth="yes"/>
      <point x="358" y="-10"/>
      <point x="448" y="75"/>
      <point x="448" y="267" type="curve" smooth="yes"/>
      <point x="448" y="447"/>
      <point x="397" y="520"/>
      <point x="302" y="520" type="curve" smooth="yes"/>
      <point x="210" y="520"/>
      <point x="169" y="466"/>
      <point x="146" y="374" type="curve"/>
      <point x="176" y="440" type="line"/>
      <point x="130" y="440" type="line"/>
    </contour>
  </outline>
</glyph>
<glyph name="q" format="2">
  <advance width="515"/>
  <unicode hex="0071"/>
  <outline>
    <contour>
      <point x="361" y="82" type="line"/>
      <point x="339" y="136" type="line"/>
      <point x="339" y="50"/>
      <point x="330" y="-121"/>
      <point x="330" y="-176" type="curve" smooth="yes"/>
      <point x="330" y="-227"/>
      <point x="349" y="-250"/>
      <point x="388" y="-250" type="curve" smooth="yes"/>
      <point x="413" y="-250"/>
      <point x="459" y="-247"/>
      <point x="486" y="-241" type="curve"/>
      <point x="490" y="-161" type="line"/>
      <point x="440" y="-151" type="line"/>
      <point x="440" y="71" type="line" smooth="yes"/>
      <point x="440" y="159"/>
      <point x="450" y="540"/>
      <point x="450" y="540" type="curve"/>
      <point x="445" y="550" type="line"/>
      <point x="335" y="550" type="line"/>
      <point x="330" y="540" type="line"/>
      <point x="330" y="540"/>
      <point x="336" y="408"/>
      <point x="336" y="270" type="curve" smooth="yes"/>
      <point x="336.0" y="152.94478527607362"/>
      <point x="286.0" y="90.0"/>
      <point x="236" y="90" type="curve" smooth="yes"/>
      <point x="165.0" y="90.0"/>
      <point x="130.0" y="153.00000000000003"/>
      <point x="130" y="278" type="curve" smooth="yes"/>
      <point x="130.0" y="403.02906976744185"/>
      <point x="165.0" y="465.0"/>
      <point x="236" y="465" type="curve" smooth="yes"/>
      <point x="278.910447761194" y="465.0"/>
      <point x="313" y="446"/>
      <point x="361" y="396" type="curve"/>
      <point x="348" y="483" type="line"/>
      <point x="322" y="483" type="line"/>
      <point x="286.20741461105854" y="536.229998783554"/>
      <point x="252.0" y="555.0"/>
      <point x="193" y="555" type="curve" smooth="yes"/>
      <point x="89" y="555.0"/>
      <point x="30.0" y="456.0"/>
      <point x="30" y="278" type="curve" smooth="yes"/>
      <point x="30.0" y="100.0"/>
      <point x="91" y="0.0"/>
      <point x="199" y="0" type="curve" smooth="yes"/>
      <point x="282.0" y="0.0"/>
      <point x="352.0" y="83.0"/>
      <point x="352" y="227" type="curve"/>
      <point x="298" y="82" type="line"/>
    </contour>
  </outline>
</glyph>
<glyph name="r" format="2">
	<advance width="430"/>
	<unicode hex="0072"/>
	<outline>
		<contour>
			<point x="195" y="262" type="line"/>
			<point x="200" y="262" type="line"/>
			<point x="200" y="350.20548"/>
			<point x="261" y="425"/>
			<point x="381" y="399" type="curve"/>
			<point x="402" y="518" type="line"/>
			<point x="387" y="521"/>
			<point x="370.275" y="524"/>
			<point x="355" y="524" type="curve" smooth="yes"/>
			<point x="269.02439" y="524"/>
			<point x="233" y="492"/>
			<point x="205" y="399" type="curve"/>
			<point x="195" y="399" type="line"/>
		</contour>
		<contour>
			<point x="90" y="472" type="line"/>
			<point x="90" y="472"/>
			<point x="100" y="415"/>
			<point x="100" y="275" type="curve" smooth="yes"/>
			<point x="100" y="77"/>
			<point x="90" y="10"/>
			<point x="90" y="10" type="curve"/>
			<point x="95" y="0" type="line"/>
			<point x="205" y="0" type="line"/>
			<point x="210" y="10" type="line"/>
			<point x="210" y="10"/>
			<point x="200" y="89"/>
			<point x="200" y="275" type="curve" smooth="yes"/>
			<point x="200" y="352"/>
			<point x="200" y="458"/>
			<point x="200" y="458" type="curve"/>
			<point x="200" y="497"/>
			<point x="184" y="520"/>
			<point x="139" y="520" type="curve"/>
			<point x="110" y="520"/>
			<point x="74" y="512"/>
			<point x="41" y="504" type="curve"/>
			<point x="48" y="421" type="line"/>
			<point x="109" y="425" type="line"/>
		</contour>
	</outline>
</glyph>
<glyph name="v" format="2">
	<advance width="470"/>
	<unicode hex="0076"/>
	<guideline x="49" y="459" angle="0" identifier="4lh4eeIw6S"/>
	<outline>
		<contour>
			<point x="455" y="500" type="line"/>
			<point x="432" y="419"/>
			<point x="412.91123" y="351.62948"/>
			<point x="390" y="256" type="curve" smooth="yes"/>
			<point x="367.15505" y="158.66065"/>
			<point x="348.86138" y="92.36083"/>
			<point x="331" y="10" type="curve"/>
			<point x="325" y="0" type="line"/>
			<point x="165" y="0" type="line"/>
			<point x="165" y="0"/>
			<point x="159" y="10"/>
			<point x="159" y="10" type="curve"/>
			<point x="159" y="10"/>
			<point x="112.83769" y="187.59985"/>
			<point x="90" y="272" type="curve" smooth="yes"/>
			<point x="69.08549" y="349.68246"/>
			<point x="15" y="500"/>
			<point x="15" y="500" type="curve"/>
			<point x="20" y="510" type="line"/>
			<point x="20" y="510"/>
			<point x="134" y="510"/>
			<point x="134" y="510" type="curve"/>
			<point x="140" y="500" type="line"/>
			<point x="140" y="500"/>
			<point x="173.10192" y="355.62064"/>
			<point x="191" y="289" type="curve" smooth="yes"/>
			<point x="212.93464" y="206.24659"/>
			<point x="265" y="53"/>
			<point x="265" y="53" type="curve"/>
			<point x="239" y="53" type="line"/>
			<point x="239" y="53"/>
			<point x="277.20764" y="175.91043"/>
			<point x="303" y="289" type="curve" smooth="yes"/>
			<point x="328.88433" y="404.48393"/>
			<point x="340" y="502"/>
			<point x="340" y="502" type="curve"/>
			<point x="347" y="510" type="line"/>
			<point x="347" y="510"/>
			<point x="449" y="510"/>
			<point x="449" y="510" type="curve"/>
		</contour>
	</outline>
</glyph>
<glyph name="w" format="2">
	<advance width="707"/>
	<unicode hex="0077"/>
	<outline>
		<contour>
			<point x="344" y="469" type="line"/>
			<point x="360" y="396"/>
			<point x="389" y="274"/>
			<point x="400" y="200" type="curve" smooth="yes"/>
			<point x="410" y="134"/>
			<point x="425" y="8"/>
			<point x="425" y="8" type="curve"/>
			<point x="431" y="-2" type="line"/>
			<point x="590" y="-2" type="line"/>
			<point x="590" y="-2"/>
			<point x="597" y="8"/>
			<point x="597" y="8" type="curve" smooth="yes"/>
			<point x="597" y="8"/>
			<point x="627" y="168"/>
			<point x="647" y="259" type="curve" smooth="yes"/>
			<point x="664" y="337"/>
			<point x="713" y="501"/>
			<point x="713" y="501" type="curve" smooth="yes"/>
			<point x="713" y="501"/>
			<point x="708" y="510"/>
			<point x="708" y="510" type="curve" smooth="yes"/>
			<point x="708" y="510"/>
			<point x="608" y="510"/>
			<point x="608" y="510" type="curve" smooth="yes"/>
			<point x="608" y="510"/>
			<point x="602" y="501"/>
			<point x="602" y="501" type="curve" smooth="yes"/>
			<point x="602" y="501"/>
			<point x="584" y="357"/>
			<point x="571" y="289" type="curve" smooth="yes"/>
			<point x="555" y="206"/>
			<point x="516" y="51"/>
			<point x="516" y="51" type="curve"/>
			<point x="524" y="51" type="line"/>
			<point x="524" y="51"/>
			<point x="500" y="174"/>
			<point x="478" y="289" type="curve" smooth="yes"/>
			<point x="456" y="405"/>
			<point x="446" y="501"/>
			<point x="446" y="501" type="curve"/>
			<point x="446" y="501"/>
			<point x="438" y="510"/>
			<point x="438" y="510" type="curve" smooth="yes"/>
			<point x="438" y="510"/>
			<point x="280" y="510"/>
			<point x="280" y="510" type="curve" smooth="yes"/>
			<point x="280" y="510"/>
			<point x="273" y="503"/>
			<point x="273" y="503" type="curve" smooth="yes"/>
			<point x="273" y="503"/>
			<point x="269" y="405"/>
			<point x="248" y="289" type="curve" smooth="yes"/>
			<point x="227" y="175"/>
			<point x="202" y="51"/>
			<point x="202" y="51" type="curve"/>
			<point x="215" y="51" type="line"/>
			<point x="215" y="51"/>
			<point x="173" y="206"/>
			<point x="156" y="289" type="curve" smooth="yes"/>
			<point x="142" y="357"/>
			<point x="119" y="501"/>
			<point x="119" y="501" type="curve" smooth="yes"/>
			<point x="119" y="501"/>
			<point x="113" y="510"/>
			<point x="113" y="510" type="curve" smooth="yes"/>
			<point x="113" y="510"/>
			<point x="4" y="510"/>
			<point x="4" y="510" type="curve" smooth="yes"/>
			<point x="4" y="510"/>
			<point x="-1" y="501"/>
			<point x="-1" y="501" type="curve" smooth="yes"/>
			<point x="-1" y="501"/>
			<point x="44" y="336"/>
			<point x="68" y="259" type="curve" smooth="yes"/>
			<point x="97" y="168"/>
			<point x="114" y="8"/>
			<point x="114" y="8" type="curve" smooth="yes"/>
			<point x="114" y="8"/>
			<point x="121" y="-2"/>
			<point x="121" y="-2" type="curve"/>
			<point x="284" y="-2" type="line"/>
			<point x="290" y="8" type="line"/>
			<point x="290" y="8"/>
			<point x="299" y="133"/>
			<point x="310" y="200" type="curve" smooth="yes"/>
			<point x="323" y="274"/>
			<point x="355" y="396"/>
			<point x="371" y="469" type="curve"/>
		</contour>
	</outline>
</glyph>
<glyph name="acute" format="2">
	<advance width="435"/>
	<unicode hex="00B4"/>
	<anchor x="186" y="510" name="_top"/>
	<outline>
		<contour>
			<point x="100" y="609" type="line"/>
			<point x="100" y="617" type="line"/>
			<point x="256" y="778" type="line"/>
			<point x="266" y="778" type="line"/>
			<point x="335" y="688" type="line"/>
			<point x="335" y="678" type="line"/>
			<point x="143" y="564" type="line"/>
			<point x="136" y="564" type="line"/>
		</contour>
	</outline>
</glyph>
<glyph name="oacute" format="2">
  <advance width="489"/>
  <unicode hex="00F3"/>
  <outline>
    <contour>
      <point x="244" y="70" type="curve" smooth="yes"/>
      <point x="320" y="70"/>
      <point x="354" y="115"/>
      <point x="354" y="275" type="curve" smooth="yes"/>
      <point x="354" y="435"/>
      <point x="320" y="480"/>
      <point x="244" y="480" type="curve" smooth="yes"/>
      <point x="169" y="480"/>
      <point x="135" y="435"/>
      <point x="135" y="275" type="curve" smooth="yes"/>
      <point x="135" y="115"/>
      <point x="169" y="70"/>
    </contour>
    <contour>
      <point x="244" y="-10" type="curve" smooth="yes"/>
      <point x="101" y="-10"/>
      <point x="35" y="68"/>
      <point x="35" y="275" type="curve" smooth="yes"/>
      <point x="35" y="482"/>
      <point x="101" y="560"/>
      <point x="244" y="560" type="curve" smooth="yes"/>
      <point x="388" y="560"/>
      <point x="454" y="482"/>
      <point x="454" y="275" type="curve" smooth="yes"/>
      <point x="454" y="68"/>
      <point x="388" y="-10"/>
    </contour>
    <contour>
      <point x="224" y="614" type="line"/>
      <point x="222" y="625" type="line"/>
      <point x="296" y="749" type="line"/>
      <point x="305" y="746" type="line"/>
      <point x="367" y="697" type="line"/>
      <point x="367" y="687" type="line"/>
      <point x="260" y="595" type="line"/>
      <point x="251" y="592" type="line"/>
    </contour>
  </outline>
</glyph>
<glyph name="tilde" format="2">
  <advance width="402"/>
  <unicode hex="02DC"/>
  <outline>
    <contour>
      <point x="144" y="618" type="curve"/>
      <point x="125" y="618"/>
      <point x="97" y="601"/>
      <point x="68" y="583" type="curve"/>
      <point x="40" y="608" type="line"/>
      <point x="62" y="646"/>
      <point x="99" y="703"/>
      <point x="149" y="703" type="curve"/>
      <point x="172" y="703"/>
      <point x="238" y="669"/>
      <point x="259" y="669" type="curve"/>
      <point x="278" y="669"/>
      <point x="305" y="686"/>
      <point x="334" y="703" type="curve"/>
      <point x="362" y="679" type="line"/>
      <point x="340" y="642"/>
      <point x="302" y="584"/>
      <point x="252" y="584" type="curve"/>
      <point x="232" y="584"/>
      <point x="169" y="618"/>
    </contour>
  </outline>
</glyph>
<glyph name="N.001" format="2">
	<advance width="533"/>
	<outline>
		<contour>
			<point x="376" y="55" type="curve"/>
			<point x="418" y="92" type="line"/>
			<point x="383" y="93" type="line"/>
			<point x="364" y="203" type="line"/>
			<point x="176" y="670" type="line"/>
			<point x="151" y="670"/>
			<point x="82" y="670"/>
			<point x="55" y="670" type="curve"/>
			<point x="50" y="664" type="line"/>
			<point x="54" y="635"/>
			<point x="65" y="458"/>
			<point x="65" y="348" type="curve" smooth="yes"/>
			<point x="65" y="82"/>
			<point x="65" y="152"/>
			<point x="55" y="10" type="curve"/>
			<point x="60" y="0" type="line"/>
			<point x="169" y="0" type="line"/>
			<point x="174" y="10" type="line"/>
			<point x="163" y="152"/>
			<point x="162" y="86"/>
			<point x="162" y="410" type="curve" smooth="yes"/>
			<point x="162" y="485"/>
			<point x="160" y="574"/>
			<point x="158" y="635" type="curve"/>
			<point x="132" y="546" type="line"/>
			<point x="152" y="546" type="line"/>
			<point x="173" y="407" type="line"/>
			<point x="350" y="0" type="line"/>
			<point x="375" y="0"/>
			<point x="451" y="0"/>
			<point x="478" y="0" type="curve"/>
			<point x="483" y="6" type="line"/>
			<point x="479" y="35"/>
			<point x="468" y="212"/>
			<point x="468" y="322" type="curve" smooth="yes"/>
			<point x="468" y="588"/>
			<point x="468" y="518"/>
			<point x="478" y="660" type="curve"/>
			<point x="473" y="670" type="line"/>
			<point x="364" y="670" type="line"/>
			<point x="359" y="660" type="line"/>
			<point x="370" y="518"/>
			<point x="371" y="584"/>
			<point x="371" y="260" type="curve" smooth="yes"/>
			<point x="371" y="178"/>
			<point x="374" y="124"/>
		</contour>
	</outline>
</glyph>
<glyph name="m.001" format="2">
	<advance width="819"/>
	<guideline x="414" y="251" angle="0"/>
	<outline>
		<contour>
			<point x="476" y="335" type="line"/>
			<point x="476" y="383" type="line" smooth="yes"/>
			<point x="476" y="467"/>
			<point x="425" y="520"/>
			<point x="343" y="520" type="curve" smooth="yes"/>
			<point x="243" y="520"/>
			<point x="180" y="412"/>
			<point x="180" y="304" type="curve"/>
			<point x="236" y="440" type="line"/>
			<point x="184" y="440" type="line"/>
			<point x="200" y="370" type="line"/>
			<point x="200" y="458" type="line"/>
			<point x="200" y="497"/>
			<point x="184" y="520"/>
			<point x="139" y="520" type="curve"/>
			<point x="110" y="520"/>
			<point x="74" y="512"/>
			<point x="41" y="504" type="curve"/>
			<point x="48" y="421" type="line"/>
			<point x="109" y="425" type="line"/>
			<point x="90" y="472" type="line"/>
			<point x="90" y="472"/>
			<point x="100" y="415"/>
			<point x="100" y="275" type="curve" smooth="yes"/>
			<point x="100" y="77"/>
			<point x="90" y="10"/>
			<point x="90" y="10" type="curve"/>
			<point x="95" y="0" type="line"/>
			<point x="205" y="0" type="line"/>
			<point x="210" y="10" type="line"/>
			<point x="210" y="10"/>
			<point x="200" y="89"/>
			<point x="200" y="275" type="curve" smooth="yes"/>
			<point x="200" y="387"/>
			<point x="232" y="430"/>
			<point x="310" y="430" type="curve" smooth="yes"/>
			<point x="361" y="430"/>
			<point x="376" y="391"/>
			<point x="376" y="275" type="curve"/>
			<point x="376" y="146"/>
			<point x="371" y="61"/>
			<point x="371" y="6" type="curve"/>
			<point x="375" y="0" type="line"/>
			<point x="477" y="0" type="line"/>
			<point x="482" y="6" type="line"/>
			<point x="475" y="87"/>
			<point x="476" y="129"/>
			<point x="476" y="275" type="curve" smooth="yes"/>
			<point x="476" y="387"/>
			<point x="508" y="430"/>
			<point x="586" y="430" type="curve" smooth="yes"/>
			<point x="637" y="430"/>
			<point x="652" y="391"/>
			<point x="652" y="275" type="curve"/>
			<point x="652" y="196"/>
			<point x="648" y="120"/>
			<point x="648" y="65" type="curve" smooth="yes"/>
			<point x="648" y="13"/>
			<point x="679" y="-10"/>
			<point x="719" y="-10" type="curve"/>
			<point x="742" y="-10"/>
			<point x="773" y="-5"/>
			<point x="800" y="-1" type="curve"/>
			<point x="804" y="80" type="line"/>
			<point x="704" y="100" type="line"/>
			<point x="752" y="37" type="line"/>
			<point x="752" y="383" type="line" smooth="yes"/>
			<point x="752" y="467"/>
			<point x="701" y="520"/>
			<point x="619" y="520" type="curve" smooth="yes"/>
			<point x="519" y="520"/>
			<point x="456" y="412"/>
			<point x="456" y="304" type="curve"/>
			<point x="502" y="440" type="line"/>
			<point x="460" y="440" type="line"/>
			<point x="460" y="275" type="line"/>
		</contour>
	</outline>
</glyph>
